<svg width="62" height="62" viewBox="0 0 62 62" fill="none" xmlns="http://www.w3.org/2000/svg">
<g clip-path="url(#clip0_18114_85)">
<path d="M31 0C48.1208 0 62 13.8792 62 31C62 48.1208 48.1208 62 31 62C13.8792 62 0 48.1208 0 31C0 13.8792 13.8792 0 31 0ZM13.9502 20.1504C14.2272 33.7044 20.8722 41.8494 32.5225 41.8496H33.1836V34.0957C35.2385 34.3597 37.1717 35.2359 38.7402 36.6152C40.3086 37.9946 41.4428 39.8156 42.001 41.8496H48.0498C47.428 39.5078 46.3263 37.3269 44.8174 35.4512C43.3084 33.5753 41.4265 32.0475 39.2959 30.9678C41.2046 29.7861 42.8543 28.2148 44.1406 26.3535C45.4268 24.4924 46.323 22.3807 46.7725 20.1504H41.2773C40.0846 24.451 36.5487 28.361 33.1836 28.7305V20.1504H27.6875V35.1816C24.2797 34.3125 19.9779 30.0983 19.7861 20.1504H13.9502Z" fill="white" fill-opacity="0.4"/>
</g>
<defs>
<clipPath id="clip0_18114_85">
<rect width="62" height="62" fill="white"/>
</clipPath>
</defs>
</svg>
